<?xml version="1.0" encoding="UTF-8"?>
<svg xmlns="http://www.w3.org/2000/svg" xmlns:xlink="http://www.w3.org/1999/xlink" width="45px" height="33px" viewBox="0 0 45 33" version="1.1">
<g id="surface1">
<path style="fill-rule:nonzero;fill:rgb(0%,0%,0%);fill-opacity:1;stroke-width:1;stroke-linecap:butt;stroke-linejoin:round;stroke:rgb(0%,0%,0%);stroke-opacity:1;stroke-miterlimit:4;" d="M 357.851998 268.792946 L 381.244914 287.369934 L 381.244914 323.066283 L 324.275911 382.704927 L 317.875963 382.704927 L 275.188619 362.360179 L 275.188619 355.940418 L 367.31005 320.585216 L 367.31005 312.366682 L 256.430148 337.36343 L 248.92676 337.36343 L 210.716228 298.441694 L 214.278761 289.509854 L 371.440067 289.509854 Z M 357.851998 268.792946 " transform="matrix(0.123902,0,0,0.125954,-25.600425,-33.664109)"/>
<path style="fill-rule:nonzero;fill:rgb(0%,0%,0%);fill-opacity:1;stroke-width:1;stroke-linecap:butt;stroke-linejoin:round;stroke:rgb(0%,0%,0%);stroke-opacity:1;stroke-miterlimit:4;" d="M 363.558356 357.025885 L 323.203999 406.306075 L 363.211561 378.425086 L 344.295456 434.869357 L 366.679513 404.166155 L 366.679513 502.540455 L 380.519797 527.723283 L 380.519797 380.03778 C 371.219379 376.936446 365.260806 369.648313 363.558356 357.025885 Z M 363.558356 357.025885 " transform="matrix(0.123902,0,0,0.125954,-25.600425,-33.664109)"/>
<path style="fill-rule:nonzero;fill:rgb(0%,0%,0%);fill-opacity:1;stroke-width:1;stroke-linecap:butt;stroke-linejoin:round;stroke:rgb(0%,0%,0%);stroke-opacity:1;stroke-miterlimit:4;" d="M 418.604222 268.792946 L 395.211305 287.369934 L 395.211305 323.066283 L 452.148781 382.704927 L 458.580257 382.704927 L 501.267601 362.360179 L 501.267601 355.940418 L 409.114642 320.585216 L 409.114642 312.366682 L 519.994545 337.36343 L 527.497933 337.36343 L 565.739992 298.441694 L 562.177459 289.509854 L 405.016153 289.509854 Z M 418.604222 268.792946 " transform="matrix(0.123902,0,0,0.125954,-25.600425,-33.664109)"/>
<path style="fill-rule:nonzero;fill:rgb(0%,0%,0%);fill-opacity:1;stroke-width:1;stroke-linecap:butt;stroke-linejoin:round;stroke:rgb(0%,0%,0%);stroke-opacity:1;stroke-miterlimit:4;" d="M 412.866337 357.025885 L 453.220694 406.306075 L 413.244659 378.425086 L 432.160764 434.869357 L 409.745179 404.166155 L 409.745179 502.540455 L 395.904896 527.723283 L 395.904896 380.03778 C 405.205314 376.936446 411.163887 369.648313 412.866337 357.025885 Z M 412.866337 357.025885 " transform="matrix(0.123902,0,0,0.125954,-25.600425,-33.664109)"/>
</g>
</svg>
