<?xml version="1.0" encoding="UTF-8"?>
<svg xmlns="http://www.w3.org/2000/svg" xmlns:xlink="http://www.w3.org/1999/xlink" width="35px" height="26px" viewBox="0 0 35 26" version="1.1">
<g id="surface1">
<path style="fill-rule:nonzero;fill:rgb(0%,0%,0%);fill-opacity:1;stroke-width:1;stroke-linecap:butt;stroke-linejoin:round;stroke:rgb(0%,0%,0%);stroke-opacity:1;stroke-miterlimit:4;" d="M 357.853031 268.808203 L 381.241511 287.387559 L 381.241511 323.050476 L 324.290359 382.685486 L 317.885888 382.685486 L 275.202925 362.374156 L 275.202925 355.95798 L 367.297599 320.570604 L 367.297599 312.383091 L 256.435393 337.378623 L 248.936487 337.378623 L 210.712333 298.448574 L 214.27938 289.513163 L 371.432131 289.513163 Z M 357.853031 268.808203 " transform="matrix(0.0963682,0,0,0.0992365,-19.911442,-26.523237)"/>
<path style="fill-rule:nonzero;fill:rgb(0%,0%,0%);fill-opacity:1;stroke-width:1;stroke-linecap:butt;stroke-linejoin:round;stroke:rgb(0%,0%,0%);stroke-opacity:1;stroke-miterlimit:4;" d="M 363.568414 357.020782 L 323.195924 406.303311 L 363.203602 378.434277 L 344.314465 434.88088 L 366.68958 404.177707 L 366.68958 502.545951 L 380.511888 527.738298 L 380.511888 380.048162 C 371.229458 376.938481 365.270868 369.656318 363.568414 357.020782 Z M 363.568414 357.020782 " transform="matrix(0.0963682,0,0,0.0992365,-19.911442,-26.523237)"/>
<path style="fill-rule:nonzero;fill:rgb(0%,0%,0%);fill-opacity:1;stroke-width:1;stroke-linecap:butt;stroke-linejoin:round;stroke:rgb(0%,0%,0%);stroke-opacity:1;stroke-miterlimit:4;" d="M 418.614438 268.808203 L 395.225958 287.387559 L 395.225958 323.050476 L 452.136575 382.685486 L 458.581581 382.685486 L 501.264543 362.374156 L 501.264543 355.95798 L 409.129335 320.570604 L 409.129335 312.383091 L 519.991541 337.378623 L 527.490448 337.378623 L 565.755136 298.448574 L 562.188089 289.513163 L 405.035338 289.513163 Z M 418.614438 268.808203 " transform="matrix(0.0963682,0,0,0.0992365,-19.911442,-26.523237)"/>
<path style="fill-rule:nonzero;fill:rgb(0%,0%,0%);fill-opacity:1;stroke-width:1;stroke-linecap:butt;stroke-linejoin:round;stroke:rgb(0%,0%,0%);stroke-opacity:1;stroke-miterlimit:4;" d="M 412.858521 357.020782 L 453.23101 406.303311 L 413.263867 378.434277 L 432.153003 434.88088 L 409.737354 404.177707 L 409.737354 502.545951 L 395.915046 527.738298 L 395.915046 380.048162 C 405.197476 376.938481 411.156066 369.656318 412.858521 357.020782 Z M 412.858521 357.020782 " transform="matrix(0.0963682,0,0,0.0992365,-19.911442,-26.523237)"/>
</g>
</svg>
